<?xml version="1.0" encoding="utf-8"?>
<svg  xmlns="http://www.w3.org/2000/svg" width="400" height="235.306019221042" viewBox="0, 0, 400,235.306019221042">
<title> DigiLocker logo</title>
<g>
<path d="M77.011 83.251 C 74.045 84.308,74.052 84.278,74.052 96.316 C 74.052 104.200,73.994 106.621,73.799 106.863 C 73.660 107.035,72.999 107.526,72.332 107.954 C 68.202 110.597,64.947 116.080,64.947 120.394 C 64.947 120.859,64.775 121.171,64.301 121.566 C 59.246 125.781,57.573 130.264,59.179 135.296 C 60.936 140.800,64.838 143.594,71.118 143.843 L 73.950 143.955 74.052 147.092 C 74.262 153.612,72.076 153.161,103.499 153.161 C 132.557 153.161,131.448 153.260,132.867 150.550 L 133.333 149.658 133.333 129.269 C 133.333 111.004,133.300 108.848,133.015 108.563 C 132.732 108.279,131.044 108.245,117.477 108.245 C 105.908 108.245,102.198 108.187,102.013 108.002 C 101.830 107.819,101.770 104.787,101.770 95.599 C 101.770 86.412,101.711 83.380,101.528 83.197 C 101.149 82.818,78.083 82.869,77.011 83.251 M105.445 83.609 C 105.036 84.018,105.117 104.684,105.529 105.096 C 106.028 105.595,132.018 105.479,132.018 104.978 C 132.018 104.678,130.869 103.685,124.960 98.882 C 123.972 98.078,122.776 97.102,122.303 96.712 C 121.830 96.323,120.424 95.185,119.179 94.183 C 117.934 93.182,116.253 91.816,115.445 91.148 C 114.636 90.481,113.406 89.479,112.712 88.923 C 112.018 88.366,110.614 87.228,109.592 86.394 C 105.968 83.434,105.760 83.294,105.445 83.609 M172.093 89.139 C 171.634 89.598,171.634 93.305,172.093 93.764 C 172.498 94.169,177.007 94.233,177.400 93.839 C 177.558 93.681,177.643 92.850,177.643 91.452 C 177.643 90.053,177.558 89.223,177.400 89.064 C 177.007 88.671,172.498 88.735,172.093 89.139 M206.691 89.139 C 206.232 89.598,206.232 93.305,206.691 93.764 C 207.096 94.169,211.605 94.233,211.998 93.839 C 212.156 93.681,212.241 92.850,212.241 91.452 C 212.241 90.053,212.156 89.223,211.998 89.064 C 211.605 88.671,207.096 88.735,206.691 89.139 M287.142 89.064 C 286.725 89.482,286.798 122.480,287.217 122.899 C 287.469 123.151,288.014 123.217,289.833 123.217 C 292.940 123.217,292.767 123.468,292.767 118.976 L 292.767 115.370 293.715 114.315 C 294.885 113.014,294.595 112.690,297.350 118.361 C 299.889 123.587,299.481 123.217,302.703 123.217 C 306.292 123.217,306.334 123.187,305.342 121.350 C 305.025 120.763,304.167 119.145,303.434 117.754 C 302.702 116.363,301.595 114.269,300.975 113.101 C 298.125 107.731,298.179 108.687,300.543 105.513 C 306.398 97.652,306.272 98.127,302.504 98.132 C 299.291 98.135,299.806 97.723,295.816 103.485 C 294.766 105.000,293.674 106.474,293.388 106.759 L 292.868 107.279 292.815 98.321 C 292.779 92.118,292.693 89.280,292.538 89.093 C 292.236 88.730,287.501 88.705,287.142 89.064 M144.097 90.885 C 143.680 91.302,143.753 122.480,144.172 122.899 C 144.680 123.407,155.889 123.352,158.017 122.832 C 164.809 121.172,167.839 116.099,167.818 106.424 C 167.798 97.546,164.873 92.688,158.537 91.013 C 156.797 90.553,144.538 90.445,144.097 90.885 M217.946 90.885 C 217.595 91.237,217.595 122.623,217.946 122.974 C 218.361 123.388,236.999 123.316,237.416 122.899 C 237.668 122.647,237.734 122.102,237.734 120.283 C 237.734 117.071,238.416 117.350,230.559 117.350 C 224.782 117.350,224.005 117.312,223.896 117.029 C 223.829 116.853,223.773 110.954,223.773 103.919 C 223.773 94.240,223.714 91.069,223.531 90.885 C 223.367 90.722,222.452 90.642,220.738 90.642 C 219.025 90.642,218.110 90.722,217.946 90.885 M198.940 94.045 C 198.802 94.132,198.560 94.636,198.401 95.164 C 197.735 97.377,196.627 98.228,194.938 97.825 C 192.629 97.273,189.041 97.574,187.270 98.468 C 182.442 100.904,181.224 107.772,184.854 112.087 L 185.414 112.751 184.840 113.179 C 181.978 115.310,181.403 117.597,183.131 119.982 C 183.857 120.985,183.870 120.876,182.888 121.942 C 180.538 124.492,180.689 128.444,183.222 130.674 C 184.601 131.888,185.045 131.948,192.109 131.878 L 198.381 131.816 199.640 131.234 C 204.129 129.161,205.579 122.920,202.394 119.378 C 200.877 117.690,200.777 117.667,194.468 117.552 C 188.955 117.451,188.935 117.449,188.550 116.973 C 187.392 115.541,188.460 114.719,191.481 114.719 C 199.878 114.719,204.027 108.708,200.542 101.590 L 200.008 100.500 200.510 100.183 C 202.612 98.858,204.256 95.231,203.223 94.198 C 202.878 93.853,199.435 93.730,198.940 94.045 M156.362 96.641 C 156.438 96.757,156.752 96.914,157.060 96.989 C 158.952 97.452,160.806 100.368,160.999 103.183 C 161.060 104.082,161.189 104.866,161.284 104.925 C 161.509 105.064,161.510 107.784,161.285 107.923 C 161.190 107.981,161.060 108.910,160.996 109.988 C 160.931 111.065,160.794 112.001,160.691 112.068 C 160.588 112.135,160.445 112.509,160.373 112.898 C 160.067 114.563,157.621 116.841,155.885 117.079 C 155.382 117.147,154.923 117.282,154.864 117.378 C 154.804 117.474,153.714 117.552,152.441 117.552 L 150.126 117.552 150.126 106.905 L 150.126 96.257 153.176 96.344 C 154.969 96.395,156.281 96.517,156.362 96.641 M247.835 97.890 C 241.962 99.452,239.178 107.680,241.485 116.657 C 243.078 122.856,250.180 125.806,256.107 122.732 C 262.262 119.540,262.919 103.695,257.078 99.314 C 254.949 97.717,250.855 97.086,247.835 97.890 M270.796 98.004 C 266.355 99.443,264.586 103.041,264.568 110.673 C 264.547 119.728,267.479 123.824,273.984 123.824 C 279.071 123.824,282.650 120.327,282.650 115.356 C 282.650 113.753,282.571 113.708,279.792 113.708 C 276.989 113.708,276.899 113.761,276.715 115.518 C 276.342 119.084,273.029 120.099,271.505 117.113 C 270.383 114.915,270.337 106.299,271.435 104.172 C 272.999 101.146,276.581 102.640,276.581 106.318 C 276.581 107.570,276.736 107.638,279.616 107.638 C 282.587 107.638,282.650 107.604,282.650 106.000 C 282.650 99.876,276.930 96.017,270.796 98.004 M314.517 97.816 C 309.670 99.011,307.641 102.774,307.639 110.572 C 307.636 119.991,310.827 124.152,317.754 123.762 C 322.052 123.521,324.437 121.731,325.645 117.845 C 326.684 114.499,326.433 114.112,323.217 114.112 C 320.626 114.112,320.283 114.266,320.283 115.425 C 320.283 119.877,315.198 120.163,313.982 115.779 C 312.948 112.050,312.886 112.089,319.879 112.089 C 326.667 112.089,326.152 112.287,326.147 109.671 C 326.130 100.810,321.502 96.093,314.517 97.816 M339.331 97.727 C 338.358 98.139,337.646 98.807,337.042 99.878 C 336.301 101.192,336.065 101.176,335.754 99.792 C 335.392 98.186,335.298 98.128,333.046 98.128 C 331.792 98.128,331.000 98.216,330.845 98.371 C 330.494 98.722,330.494 122.624,330.845 122.974 C 331.238 123.368,335.747 123.304,336.151 122.899 C 336.429 122.622,336.470 121.632,336.474 115.160 C 336.481 104.824,336.827 103.955,341.063 103.650 C 341.930 103.588,342.754 103.447,342.893 103.337 C 343.267 103.042,343.243 98.540,342.865 98.023 C 342.538 97.577,340.158 97.378,339.331 97.727 M172.093 98.446 C 171.610 98.930,171.610 122.416,172.093 122.899 C 172.498 123.304,177.007 123.368,177.400 122.974 C 177.751 122.624,177.751 98.722,177.400 98.371 C 177.007 97.978,172.498 98.042,172.093 98.446 M206.691 98.446 C 206.208 98.930,206.208 122.416,206.691 122.899 C 207.096 123.304,211.605 123.368,211.998 122.974 C 212.349 122.624,212.349 98.722,211.998 98.371 C 211.605 97.978,207.096 98.042,206.691 98.446 M192.413 102.148 C 192.413 102.245,192.767 102.372,193.200 102.430 C 196.172 102.828,196.318 109.238,193.367 109.797 C 193.009 109.865,192.595 110.016,192.448 110.132 C 192.264 110.277,192.137 110.278,192.043 110.135 C 191.968 110.020,191.572 109.873,191.163 109.809 C 190.320 109.676,189.651 109.103,189.462 108.351 C 189.392 108.070,189.253 107.840,189.154 107.840 C 189.054 107.840,188.973 107.066,188.973 106.120 C 188.973 105.175,189.054 104.401,189.154 104.401 C 189.253 104.401,189.392 104.171,189.462 103.890 C 189.647 103.152,190.315 102.566,191.118 102.436 C 191.502 102.374,191.864 102.244,191.924 102.148 C 192.064 101.921,192.413 101.921,192.413 102.148 M251.593 102.782 C 251.662 102.893,251.891 102.984,252.102 102.984 C 253.219 102.984,254.297 105.022,254.552 107.615 C 254.657 108.685,254.795 110.003,254.859 110.545 C 254.922 111.087,254.880 111.725,254.765 111.962 C 254.650 112.199,254.515 113.177,254.465 114.135 C 254.353 116.260,253.409 118.069,252.296 118.291 C 251.961 118.358,251.637 118.493,251.577 118.590 C 251.426 118.835,250.278 118.812,250.278 118.563 C 250.278 118.452,250.103 118.361,249.889 118.361 C 249.410 118.361,248.255 117.419,248.255 117.028 C 248.255 116.871,248.168 116.743,248.062 116.743 C 247.956 116.743,247.806 116.401,247.729 115.984 C 247.652 115.567,247.499 115.166,247.387 115.094 C 247.087 114.899,247.115 106.365,247.416 106.265 C 247.544 106.223,247.648 105.990,247.648 105.747 C 247.648 104.978,248.888 103.310,249.621 103.094 C 249.982 102.988,250.278 102.828,250.278 102.740 C 250.278 102.506,251.446 102.543,251.593 102.782 M318.480 103.237 C 318.811 103.599,319.179 104.259,319.297 104.704 C 319.415 105.149,319.594 105.672,319.695 105.865 C 319.796 106.058,319.879 106.581,319.879 107.028 L 319.879 107.840 316.829 107.840 L 313.780 107.840 313.920 106.677 C 313.998 106.037,314.128 105.422,314.211 105.311 C 314.293 105.200,314.420 104.856,314.494 104.547 C 314.918 102.776,317.331 101.982,318.480 103.237 M83.902 107.932 C 87.445 108.688,91.096 111.067,92.702 113.666 C 93.253 114.557,93.767 114.729,94.891 114.399 C 101.061 112.588,107.121 115.533,108.991 121.251 C 109.365 122.396,109.610 122.675,110.744 123.253 C 118.467 127.182,116.731 139.230,108.126 141.431 C 105.635 142.068,70.690 142.051,68.383 141.412 C 59.767 139.024,58.157 127.197,65.909 123.242 C 66.850 122.762,66.845 122.776,67.178 120.084 C 68.206 111.767,75.848 106.214,83.902 107.932 M84.023 122.427 C 82.434 123.445,82.120 125.093,83.257 126.454 C 84.107 127.472,84.097 127.161,83.369 129.922 C 82.589 132.877,82.615 132.929,84.867 132.929 C 87.558 132.929,87.509 133.022,86.619 129.626 L 86.046 127.436 86.748 126.595 C 87.971 125.132,87.996 124.558,86.895 123.249 C 85.858 122.016,85.032 121.780,84.023 122.427 M197.256 123.710 C 198.136 124.554,198.135 125.759,197.253 126.641 L 196.630 127.264 192.600 127.264 C 188.152 127.264,188.281 127.298,187.440 125.875 C 187.075 125.257,187.075 125.223,187.444 124.583 C 188.324 123.055,188.364 123.044,193.057 123.085 L 196.636 123.116 197.256 123.710 " stroke="none" fill="#6334FA" fill-rule="evenodd"></path>

<path d="M188.569 142.713 L 188.569 144.203 187.747 143.984 C 186.215 143.575,185.159 144.707,184.981 146.949 C 184.740 149.991,186.535 152.074,188.321 150.823 C 188.573 150.647,188.771 150.602,188.771 150.722 C 188.771 150.840,188.998 150.936,189.277 150.936 L 189.782 150.936 189.782 146.080 L 189.782 141.224 189.176 141.224 L 188.569 141.224 188.569 142.713 M320.486 146.080 L 320.486 150.936 321.093 150.936 L 321.700 150.936 321.700 148.407 C 321.700 145.696,321.925 145.068,322.899 145.068 C 323.775 145.068,323.925 145.543,323.925 148.320 L 323.925 150.936 324.551 150.936 L 325.177 150.936 325.107 148.043 C 325.016 144.222,324.155 143.033,322.265 144.118 L 321.700 144.442 321.700 142.833 L 321.700 141.224 321.093 141.224 L 320.486 141.224 320.486 146.080 M269.032 141.660 C 268.634 141.883,268.584 142.454,268.933 142.802 C 269.287 143.156,269.658 143.100,269.896 142.655 C 270.282 141.934,269.713 141.279,269.032 141.660 M157.613 141.727 C 157.613 141.781,158.204 143.158,158.928 144.788 C 160.184 147.618,160.243 147.822,160.243 149.343 L 160.243 150.936 160.850 150.936 L 161.457 150.936 161.457 149.125 C 161.457 147.344,161.477 147.268,162.671 144.630 C 164.088 141.498,164.071 141.585,163.242 141.666 C 162.631 141.727,162.555 141.837,161.682 143.906 L 160.765 146.083 159.846 143.857 C 158.944 141.671,158.916 141.632,158.270 141.630 C 157.908 141.629,157.613 141.673,157.613 141.727 M233.485 143.146 C 233.485 143.982,233.444 144.057,232.979 144.057 C 232.575 144.057,232.473 144.158,232.473 144.562 C 232.473 144.967,232.575 145.068,232.979 145.068 L 233.485 145.068 233.485 147.699 C 233.485 150.713,233.706 151.221,234.964 151.099 C 235.825 151.016,236.082 149.924,235.240 149.924 C 234.573 149.924,234.497 149.640,234.497 147.176 L 234.497 145.068 235.104 145.068 C 235.616 145.068,235.711 144.990,235.711 144.562 C 235.711 144.135,235.616 144.057,235.104 144.057 C 234.519 144.057,234.497 144.023,234.497 143.146 C 234.497 142.310,234.455 142.236,233.991 142.236 C 233.526 142.236,233.485 142.310,233.485 143.146 M265.048 143.146 C 265.048 143.982,265.007 144.057,264.542 144.057 C 264.138 144.057,264.036 144.158,264.036 144.562 C 264.036 144.967,264.138 145.068,264.542 145.068 L 265.048 145.068 265.048 147.699 C 265.048 150.713,265.269 151.221,266.527 151.099 C 267.388 151.016,267.645 149.924,266.803 149.924 C 266.136 149.924,266.060 149.640,266.060 147.176 L 266.060 145.068 266.667 145.068 C 267.179 145.068,267.274 144.990,267.274 144.562 C 267.274 144.135,267.179 144.057,266.667 144.057 C 266.082 144.057,266.060 144.023,266.060 143.146 C 266.060 142.310,266.018 142.236,265.554 142.236 C 265.089 142.236,265.048 142.310,265.048 143.146 M165.640 144.457 C 164.737 145.250,164.410 146.322,164.546 148.040 C 164.902 152.520,169.750 152.014,169.750 147.496 C 169.750 144.578,167.444 142.873,165.640 144.457 M179.593 143.995 C 179.516 144.072,179.091 144.114,178.649 144.088 L 177.845 144.040 177.845 147.488 L 177.845 150.936 178.452 150.936 L 179.059 150.936 179.059 148.421 C 179.059 145.688,179.208 145.271,180.186 145.271 C 180.613 145.271,180.678 145.177,180.678 144.562 C 180.678 143.869,180.048 143.539,179.593 143.995 M192.550 144.457 C 191.647 145.250,191.319 146.322,191.455 148.040 C 191.811 152.520,196.659 152.014,196.659 147.496 C 196.659 144.578,194.354 142.873,192.550 144.457 M199.446 144.171 C 197.746 145.094,197.605 149.450,199.234 150.731 C 200.537 151.756,202.934 150.591,202.934 148.932 C 202.934 148.509,201.944 148.695,201.697 149.165 C 201.176 150.154,200.072 150.239,199.601 149.327 C 199.125 148.407,199.188 146.266,199.711 145.601 C 200.384 144.747,201.720 145.109,201.720 146.146 C 201.720 146.387,201.894 146.485,202.327 146.485 C 203.037 146.485,203.098 146.184,202.603 145.141 C 202.043 143.960,200.633 143.527,199.446 144.171 M212.443 144.053 C 212.276 144.159,211.798 144.192,211.381 144.126 L 210.622 144.005 210.622 147.470 L 210.622 150.936 211.229 150.936 L 211.836 150.936 211.836 148.337 C 211.836 145.537,212.003 145.068,213.004 145.068 C 213.844 145.068,214.062 145.766,214.062 148.452 L 214.062 150.936 214.669 150.936 L 215.276 150.936 215.276 148.452 C 215.276 145.722,215.491 145.068,216.388 145.068 C 217.286 145.068,217.501 145.722,217.501 148.452 L 217.501 150.936 218.131 150.936 L 218.761 150.936 218.672 148.154 C 218.617 146.463,218.479 145.159,218.319 144.829 C 217.824 143.809,216.140 143.578,215.226 144.405 C 214.976 144.631,214.799 144.675,214.707 144.534 C 214.322 143.941,213.046 143.670,212.443 144.053 M221.489 144.452 C 219.835 145.903,219.984 149.921,221.724 150.821 C 222.871 151.414,224.278 151.127,224.903 150.173 C 225.423 149.380,224.805 148.835,224.119 149.480 C 223.149 150.392,221.548 149.706,221.548 148.379 C 221.548 147.912,221.589 147.901,223.369 147.901 L 225.190 147.901 225.189 147.142 C 225.184 144.408,223.190 142.957,221.489 144.452 M228.270 144.169 C 228.018 144.346,227.820 144.390,227.820 144.270 C 227.820 144.153,227.547 144.057,227.213 144.057 L 226.606 144.057 226.606 147.496 L 226.606 150.936 227.213 150.936 L 227.820 150.936 227.820 148.407 C 227.820 145.696,228.045 145.068,229.019 145.068 C 229.896 145.068,230.046 145.543,230.046 148.320 L 230.046 150.936 230.653 150.936 L 231.259 150.936 231.248 148.356 C 231.230 144.368,230.151 142.851,228.270 144.169 M238.161 144.137 C 236.515 145.049,236.914 147.391,238.807 147.931 C 240.197 148.327,240.745 149.057,240.121 149.681 C 239.578 150.225,238.139 149.808,238.139 149.108 C 238.139 148.797,238.000 148.710,237.506 148.710 C 236.902 148.710,236.880 148.739,237.000 149.368 C 237.487 151.911,241.477 151.629,241.477 149.051 C 241.477 147.895,241.091 147.466,239.545 146.902 C 238.562 146.543,238.341 146.379,238.341 146.008 C 238.341 144.936,239.569 144.705,240.121 145.674 C 240.574 146.470,241.376 146.527,241.376 145.763 C 241.376 144.290,239.551 143.366,238.161 144.137 M247.726 144.053 C 247.173 144.276,246.434 145.219,246.434 145.703 C 246.434 146.279,247.492 146.217,247.752 145.625 C 248.182 144.644,249.671 145.016,249.671 146.105 C 249.671 146.636,249.609 146.687,248.957 146.687 C 247.771 146.687,246.864 147.185,246.511 148.027 C 245.652 150.084,247.598 151.975,249.375 150.811 C 249.681 150.611,249.874 150.572,249.874 150.710 C 249.874 150.834,250.124 150.936,250.430 150.936 L 250.986 150.936 250.933 148.559 C 250.837 144.339,249.985 143.140,247.726 144.053 M254.370 144.169 C 254.118 144.346,253.920 144.390,253.920 144.270 C 253.920 144.153,253.647 144.057,253.313 144.057 L 252.706 144.057 252.706 147.496 L 252.706 150.936 253.313 150.936 L 253.920 150.936 253.920 148.407 C 253.920 145.696,254.145 145.068,255.120 145.068 C 255.996 145.068,256.146 145.543,256.146 148.320 L 256.146 150.936 256.753 150.936 L 257.360 150.936 257.348 148.356 C 257.331 144.368,256.251 142.851,254.370 144.169 M273.546 144.053 C 273.379 144.159,272.901 144.192,272.484 144.126 L 271.725 144.005 271.725 147.470 L 271.725 150.936 272.332 150.936 L 272.939 150.936 272.939 148.337 C 272.939 145.537,273.106 145.068,274.107 145.068 C 274.946 145.068,275.164 145.766,275.164 148.452 L 275.164 150.936 275.771 150.936 L 276.378 150.936 276.378 148.452 C 276.378 145.722,276.593 145.068,277.491 145.068 C 278.389 145.068,278.604 145.722,278.604 148.452 L 278.604 150.936 279.234 150.936 L 279.864 150.936 279.774 148.154 C 279.720 146.463,279.581 145.159,279.422 144.829 C 278.927 143.809,277.242 143.578,276.329 144.405 C 276.079 144.631,275.901 144.675,275.810 144.534 C 275.424 143.941,274.149 143.670,273.546 144.053 M282.591 144.452 C 280.938 145.903,281.087 149.921,282.827 150.821 C 283.973 151.414,285.381 151.127,286.006 150.173 C 286.525 149.380,285.908 148.835,285.221 149.480 C 284.251 150.392,282.650 149.706,282.650 148.379 C 282.650 147.912,282.692 147.901,284.471 147.901 L 286.292 147.901 286.291 147.142 C 286.287 144.408,284.293 142.957,282.591 144.452 M295.071 144.053 C 294.517 144.276,293.778 145.219,293.778 145.703 C 293.778 146.279,294.836 146.217,295.096 145.625 C 295.526 144.644,297.016 145.016,297.016 146.105 C 297.016 146.636,296.953 146.687,296.301 146.687 C 295.116 146.687,294.208 147.185,293.856 148.027 C 292.997 150.084,294.943 151.975,296.719 150.811 C 297.026 150.611,297.218 150.572,297.218 150.710 C 297.218 150.834,297.468 150.936,297.774 150.936 L 298.331 150.936 298.277 148.559 C 298.182 144.339,297.329 143.140,295.071 144.053 M301.714 144.169 C 301.462 144.346,301.265 144.390,301.265 144.270 C 301.265 144.153,300.991 144.057,300.658 144.057 L 300.051 144.057 300.051 147.496 L 300.051 150.936 300.658 150.936 L 301.265 150.936 301.265 148.407 C 301.265 145.696,301.490 145.068,302.464 145.068 C 303.340 145.068,303.490 145.543,303.490 148.320 L 303.490 150.936 304.097 150.936 L 304.704 150.936 304.693 148.356 C 304.675 144.368,303.596 142.851,301.714 144.169 M327.710 144.452 C 326.057 145.903,326.206 149.921,327.946 150.821 C 329.092 151.414,330.500 151.127,331.125 150.173 C 331.644 149.380,331.027 148.835,330.340 149.480 C 329.370 150.392,327.769 149.706,327.769 148.379 C 327.769 147.912,327.811 147.901,329.590 147.901 L 331.411 147.901 331.410 147.142 C 331.406 144.408,329.412 142.957,327.710 144.452 M334.778 143.995 C 334.701 144.072,334.276 144.114,333.834 144.088 L 333.030 144.040 333.030 147.488 L 333.030 150.936 333.637 150.936 L 334.244 150.936 334.244 148.421 C 334.244 145.688,334.393 145.271,335.371 145.271 C 335.798 145.271,335.862 145.177,335.862 144.562 C 335.862 143.869,335.233 143.539,334.778 143.995 M337.826 144.452 C 336.173 145.903,336.322 149.921,338.062 150.821 C 339.209 151.414,340.616 151.127,341.241 150.173 C 341.761 149.380,341.143 148.835,340.456 149.480 C 339.486 150.392,337.886 149.706,337.886 148.379 C 337.886 147.912,337.927 147.901,339.707 147.901 L 341.528 147.901 341.526 147.142 C 341.522 144.408,339.528 142.957,337.826 144.452 M171.371 146.693 C 171.371 150.394,171.852 151.348,173.569 151.049 C 173.973 150.978,174.691 150.928,175.164 150.936 L 176.024 150.952 176.024 147.504 L 176.024 144.057 175.417 144.057 L 174.810 144.057 174.810 146.586 C 174.810 149.344,174.589 149.924,173.536 149.924 C 172.682 149.924,172.585 149.600,172.585 146.748 L 172.585 144.057 171.978 144.057 L 171.371 144.057 171.371 146.693 M204.350 146.693 C 204.350 150.394,204.832 151.348,206.548 151.049 C 206.953 150.978,207.671 150.928,208.144 150.936 L 209.004 150.952 209.004 147.504 L 209.004 144.057 208.397 144.057 L 207.790 144.057 207.790 146.586 C 207.790 149.344,207.568 149.924,206.515 149.924 C 205.661 149.924,205.564 149.600,205.564 146.748 L 205.564 144.057 204.957 144.057 L 204.350 144.057 204.350 146.693 M258.653 144.397 C 260.692 150.861,260.832 152.319,259.433 152.518 C 258.661 152.628,258.786 153.768,259.571 153.768 C 260.726 153.768,260.905 153.419,262.311 148.435 C 263.617 143.805,263.586 144.057,262.864 144.057 C 262.310 144.057,262.287 144.105,261.718 146.434 C 261.399 147.742,261.099 148.694,261.050 148.551 C 261.002 148.408,260.714 147.361,260.409 146.225 C 259.858 144.172,259.850 144.157,259.196 144.093 C 258.638 144.038,258.555 144.084,258.653 144.397 M268.690 147.496 L 268.690 150.936 269.297 150.936 L 269.904 150.936 269.904 147.496 L 269.904 144.057 269.297 144.057 L 268.690 144.057 268.690 147.496 M305.998 144.397 C 308.036 150.861,308.176 152.319,306.778 152.518 C 306.006 152.628,306.131 153.768,306.915 153.768 C 308.070 153.768,308.250 153.419,309.656 148.435 C 310.962 143.805,310.930 144.057,310.209 144.057 C 309.655 144.057,309.632 144.105,309.063 146.434 C 308.744 147.742,308.443 148.694,308.395 148.551 C 308.347 148.408,308.058 147.361,307.753 146.225 C 307.203 144.172,307.194 144.157,306.540 144.093 C 305.982 144.038,305.899 144.084,305.998 144.397 M311.581 144.195 C 311.558 145.650,313.149 150.936,313.609 150.936 C 314.106 150.936,314.157 150.827,314.713 148.558 L 315.296 146.181 315.918 148.558 C 316.502 150.795,316.569 150.936,317.045 150.935 C 317.534 150.934,317.579 150.816,318.315 147.647 C 319.219 143.753,319.203 144.014,318.527 144.094 C 318.012 144.155,317.962 144.263,317.541 146.240 C 316.989 148.832,316.993 148.828,316.554 146.964 C 315.881 144.111,315.858 144.057,315.326 144.057 C 314.794 144.057,314.771 144.111,314.099 146.964 C 313.659 148.827,313.673 148.838,313.122 146.245 C 312.699 144.256,312.653 144.155,312.131 144.094 C 311.830 144.059,311.582 144.104,311.581 144.195 M167.920 145.462 C 169.094 146.636,168.514 149.924,167.132 149.924 C 166.105 149.924,165.653 149.092,165.740 147.362 C 165.845 145.278,166.855 144.397,167.920 145.462 M188.199 145.403 C 188.714 145.870,188.741 148.994,188.234 149.554 C 187.205 150.690,186.069 149.480,186.175 147.362 C 186.277 145.328,187.165 144.468,188.199 145.403 M194.829 145.462 C 196.004 146.636,195.423 149.924,194.041 149.924 C 193.015 149.924,192.563 149.092,192.650 147.362 C 192.754 145.278,193.764 144.397,194.829 145.462 M223.661 145.518 C 224.355 146.509,224.106 146.889,222.762 146.889 C 221.381 146.889,221.193 146.585,221.967 145.601 C 222.483 144.945,223.234 144.908,223.661 145.518 M284.763 145.518 C 285.458 146.509,285.208 146.889,283.864 146.889 C 282.484 146.889,282.296 146.585,283.070 145.601 C 283.586 144.945,284.336 144.908,284.763 145.518 M329.882 145.518 C 330.577 146.509,330.327 146.889,328.983 146.889 C 327.603 146.889,327.415 146.585,328.189 145.601 C 328.705 144.945,329.455 144.908,329.882 145.518 M339.999 145.518 C 340.693 146.509,340.444 146.889,339.100 146.889 C 337.719 146.889,337.531 146.585,338.305 145.601 C 338.821 144.945,339.572 144.908,339.999 145.518 M249.671 148.496 C 249.671 149.726,248.171 150.497,247.655 149.533 C 247.126 148.544,247.750 147.699,249.008 147.699 C 249.645 147.699,249.671 147.730,249.671 148.496 M297.016 148.496 C 297.016 149.726,295.515 150.497,295.000 149.533 C 294.471 148.544,295.094 147.699,296.353 147.699 C 296.990 147.699,297.016 147.730,297.016 148.496 M287.911 150.234 C 287.911 150.627,287.783 151.255,287.627 151.629 C 287.128 152.823,288.042 153.237,288.596 152.069 C 289.140 150.922,289.042 149.519,288.417 149.519 C 287.973 149.519,287.911 149.607,287.911 150.234 " stroke="none" fill="#858383" fill-rule="evenodd"></path>

<path d="M156.196 136.773 L 156.196 137.582 249.570 137.582 L 342.944 137.582 342.944 136.773 L 342.944 135.964 249.570 135.964 L 156.196 135.964 156.196 136.773 " stroke="none" fill="#247ECB" fill-rule="evenodd"></path>
</g>
</svg>