<?xml version="1.0" encoding="UTF-8"?>
<svg width="180px" height="50px" viewBox="0 0 180 50" version="1.1" xmlns="http://www.w3.org/2000/svg" xmlns:xlink="http://www.w3.org/1999/xlink">
    <!-- Generator: Sketch 40.3 (33839) - http://www.bohemiancoding.com/sketch -->
    <title>Page 1</title>
    <desc>Created with Sketch.</desc>
    <defs>
        <polygon id="path-1" points="0 49.7510963 179.904706 49.7510963 179.904706 0.204475745 0 0.204475745"></polygon>
    </defs>
    <g id="Page-1" stroke="none" stroke-width="1" fill="none" fill-rule="evenodd">
        <g id="home2" transform="translate(-630.000000, -26.000000)">
            <g id="Page-1" transform="translate(630.000000, 26.000000)">
                <polygon id="Fill-1" fill="#A7A8AB" points="0 49.1250756 2.74139037 49.1250756 2.74139037 20.0826479 0 20.0826479"></polygon>
                <g id="Group-32" transform="translate(0.000000, 0.024567)">
                    <path d="M9.75696257,28.1122592 L9.75696257,31.7322455 L9.83781818,31.7322455 C10.3219893,30.4582589 11.1815615,29.4347971 12.4184599,28.6618601 C13.6543957,27.8889231 15.011615,27.5024546 16.4901176,27.5024546 C17.9416684,27.5024546 19.1573904,27.6927758 20.1392086,28.0714761 C21.1200642,28.4521184 21.9064813,28.9871539 22.4984599,29.6785247 C23.0885134,30.3698955 23.5062674,31.2176015 23.7478717,32.2206717 C23.9894759,33.223742 24.1107594,34.3491615 24.1107594,35.5959594 L24.1107594,49.1000232 L21.5705455,49.1000232 L21.5705455,36.0028195 C21.5705455,35.1085042 21.4896898,34.2743925 21.3289412,33.5014555 C21.1672299,32.7285185 20.8851979,32.0575393 20.4818824,31.4885179 C20.0785668,30.9185254 19.5347166,30.4718532 18.8484064,30.1455884 C18.1640214,29.8202946 17.3102246,29.6581331 16.2889412,29.6581331 C15.2666952,29.6581331 14.3599572,29.8406861 13.5668021,30.206763 C12.7746096,30.57284 12.1017754,31.0748606 11.5511872,31.7118539 C10.9996364,32.3498182 10.569369,33.1091609 10.2613476,33.9898818 C9.95140107,34.8715737 9.78391444,35.8270637 9.75696257,36.8573227 L9.75696257,49.1000232 L7.21674866,49.1000232 L7.21674866,28.1122592 L9.75696257,28.1122592 L9.75696257,28.1122592 Z" id="Fill-2" fill="#A7A8AB"></path>
                    <path d="M29.9366952,41.8400474 C30.1917754,42.9110895 30.5950909,43.8675504 31.1466417,44.7074883 C31.6972299,45.5483971 32.4027914,46.2329707 33.2633262,46.761209 C34.1228984,47.2904184 35.1576578,47.5545376 36.3676043,47.5545376 C37.7113476,47.5545376 38.848139,47.2904184 39.7750909,46.761209 C40.7020428,46.2329707 41.4547701,45.5483971 42.0323102,44.7074883 C42.6108128,43.8675504 43.0266417,42.9110895 43.2826845,41.8400474 C43.5377647,40.7690053 43.6657861,39.691166 43.6657861,38.6065296 C43.6657861,37.5218931 43.5377647,36.4440538 43.2826845,35.3730118 C43.0266417,34.3019697 42.6108128,33.3464797 42.0323102,32.5055709 C41.4547701,31.664662 40.7020428,30.9800885 39.7750909,30.4508791 C38.848139,29.9226407 37.7113476,29.6585216 36.3676043,29.6585216 C35.1576578,29.6585216 34.1228984,29.9226407 33.2633262,30.4508791 C32.4027914,30.9800885 31.6972299,31.664662 31.1466417,32.5055709 C30.5950909,33.3464797 30.1917754,34.3019697 29.9366952,35.3730118 C29.6806524,36.4440538 29.5535936,37.5218931 29.5535936,38.6065296 C29.5535936,39.691166 29.6806524,40.7690053 29.9366952,41.8400474 L29.9366952,41.8400474 Z M43.8669626,49.1004116 L43.8669626,45.1143483 L43.7870695,45.1143483 C43.5175508,45.7921247 43.1219358,46.4155236 42.5973369,46.9845451 C42.072738,47.5545376 41.474984,48.0371377 40.8031123,48.4294323 C40.1302781,48.822698 39.4122032,49.1276003 38.646,49.3441392 C37.8797968,49.5606781 37.119369,49.670404 36.3676043,49.670404 C34.7812941,49.670404 33.403861,49.3781251 32.2353048,48.7955093 C31.0657861,48.2119224 30.0907059,47.4127677 29.3119893,46.3951321 C28.5323102,45.3794385 27.9538075,44.1996415 27.5774439,42.856712 C27.2010802,41.5147536 27.0133797,40.0980261 27.0133797,38.6065296 C27.0133797,37.1150331 27.2010802,35.6983056 27.5774439,34.3563471 C27.9538075,33.0134177 28.5323102,31.8345917 29.3119893,30.817927 C30.0907059,29.8002914 31.0657861,28.9933685 32.2353048,28.3971583 C33.403861,27.8009481 34.7812941,27.501872 36.3676043,27.501872 C37.1472834,27.501872 37.9057861,27.5980036 38.646,27.7873537 C39.3852513,27.9767039 40.0773369,28.2689828 40.7222567,28.6612775 C41.368139,29.0545432 41.9389412,29.5361722 42.4356257,30.1051937 C42.9332727,30.6742151 43.3163743,31.3393682 43.5849305,32.0987108 L43.6657861,32.0987108 L43.6657861,20.0589549 L46.206,20.0589549 L46.206,49.1004116 L43.8669626,49.1004116 Z" id="Fill-4" fill="#A7A8AB"></path>
                    <mask id="mask-2" fill="white">
                        <use xlink:href="#path-1"></use>
                    </mask>
                    <g id="Clip-7"></g>
                    <polygon id="Fill-6" fill="#A7A8AB" mask="url(#mask-2)" points="50.075615 49.1005087 52.6158289 49.1005087 52.6158289 28.1127447 50.075615 28.1127447"></polygon>
                    <path d="M69.7120749,37.6301626 C69.5513262,37.9282676 69.2413797,38.1457776 68.7841604,38.2807502 C68.3279037,38.4166939 67.9236257,38.5118545 67.5751765,38.566232 C66.4999893,38.7555821 65.3911123,38.9255117 64.2485455,39.0740788 C63.1059786,39.2236168 62.0644813,39.4469529 61.1240535,39.745058 C60.1826631,40.0441341 59.4106845,40.4704147 58.8052299,41.0268128 C58.200738,41.5822399 57.898492,42.3755684 57.898492,43.4058274 C57.898492,44.0564151 58.0255508,44.6332047 58.280631,45.1352254 C58.5366738,45.636275 58.8793476,46.0703238 59.309615,46.4354297 C59.7389198,46.8015066 60.2365668,47.0801912 60.8015936,47.2705124 C61.3656578,47.4598625 61.9431979,47.5550231 62.5351765,47.5550231 C63.5035187,47.5550231 64.4304706,47.405485 65.3169947,47.1073799 C66.2044813,46.8092748 66.9764599,46.3752261 67.6358182,45.8052336 C68.2932513,45.2362121 68.8178503,44.5448413 69.2076898,43.7311212 C69.5975294,42.9183722 69.7929305,41.9958971 69.7929305,40.9656381 L69.7929305,37.6301626 L69.7120749,37.6301626 Z M57.0110053,31.3670425 C57.4412727,30.4717561 58.0255508,29.7396023 58.7648021,29.1696098 C59.5040535,28.6005883 60.3713262,28.1801339 61.3656578,27.9092176 C62.3599893,27.6383012 63.4621283,27.5023575 64.6720749,27.5023575 C65.5855508,27.5023575 66.4999893,27.5907209 67.4134652,27.7664767 C68.3279037,27.9432035 69.1470481,28.2752945 69.8737861,28.7637208 C70.5985989,29.251176 71.189615,29.9357496 71.6477968,30.8174415 C72.1040535,31.6991335 72.3321818,32.8439736 72.3321818,34.2539039 L72.3321818,45.3993445 C72.3321818,46.4305746 72.8298289,46.9442475 73.825123,46.9442475 C74.1196684,46.9442475 74.3891872,46.8908411 74.631754,46.7820861 L74.631754,48.9377646 C74.3352834,48.9921421 74.0734652,49.0329252 73.8453369,49.060114 C73.616246,49.0873027 73.3274759,49.1008971 72.9780642,49.1008971 C72.3321818,49.1008971 71.8152834,49.0125337 71.4254439,48.8358069 C71.0356043,48.6600511 70.7333583,48.4085553 70.5187059,48.0832614 C70.3030909,47.7579676 70.1615936,47.3714991 70.0951765,46.923856 C70.0277968,46.4771838 69.994107,45.9819604 69.994107,45.4391566 L69.9142139,45.4391566 C69.4560321,46.1179041 68.9930374,46.7209114 68.5223422,47.2501208 C68.0516471,47.7783592 67.5280107,48.2192051 66.9504706,48.5716877 C66.3719679,48.9241703 65.7135722,49.1950866 64.9743209,49.3854078 C64.2350695,49.5747579 63.3543209,49.6699185 62.3330374,49.6699185 C61.3656578,49.6699185 60.4589198,49.5543664 59.611861,49.3242331 C58.7648021,49.0940999 58.0255508,48.7280229 57.394107,48.2260023 C56.7626631,47.7239817 56.265016,47.0869884 55.9021283,46.3150224 C55.5392406,45.5411144 55.3582781,44.6254365 55.3582781,43.5689598 C55.3582781,42.1046521 55.680738,40.958841 56.3256578,40.1315265 C56.9705775,39.305183 57.8243743,38.6740159 58.8860856,38.2399671 C59.9477968,37.8068894 61.1442674,37.5019871 62.4745348,37.3252603 C63.8048021,37.1495045 65.1552834,36.9795749 66.5269412,36.8164425 C67.0640535,36.763036 67.5347487,36.6940931 67.9380642,36.6134979 C68.3413797,36.5319317 68.6773155,36.3901619 68.9458717,36.1862463 C69.2144278,35.9833018 69.4233048,35.7055883 69.5705775,35.3521347 C69.7188128,35.0006231 69.7929305,34.5393856 69.7929305,33.9693931 C69.7929305,33.1012956 69.6514332,32.3905043 69.3694011,31.8341061 C69.087369,31.2786791 68.6975294,30.8378331 68.1998824,30.5125393 C67.7022353,30.1862744 67.1246952,29.9629383 66.4662995,29.84156 C65.8069412,29.7192107 65.1013797,29.658036 64.349615,29.658036 C62.7363529,29.658036 61.4195615,30.0445045 60.3982781,30.8174415 C59.3760321,31.5903785 58.8389198,32.8303792 58.7859786,34.5393856 L56.2448021,34.5393856 C56.3256578,33.3188055 56.580738,32.2613577 57.0110053,31.3670425 L57.0110053,31.3670425 Z" id="Fill-8" fill="#A7A8AB" mask="url(#mask-2)"></path>
                    <path d="M81.6067059,41.9416167 C81.9561176,42.6193932 82.4191123,43.1689941 82.997615,43.5884775 C83.5751551,44.0099029 84.2537647,44.3216024 85.0334439,44.5245469 C85.813123,44.7274914 86.619754,44.8294492 87.4533369,44.8294492 C88.0174011,44.8294492 88.6228556,44.7828399 89.2668128,44.6876793 C89.9126952,44.5925187 90.5171872,44.4089948 91.0822139,44.1380784 C91.6462781,43.867162 92.1160107,43.4942879 92.4933369,43.019456 C92.868738,42.5455951 93.0574011,41.9416167 93.0574011,41.2094629 C93.0574011,40.4229315 92.8090588,39.7859382 92.3114118,39.2975119 C91.8137647,38.8100567 91.162107,38.4022256 90.3564385,38.0779028 C89.5498075,37.752609 88.635369,37.4671272 87.6140856,37.2233996 C86.5928021,36.978701 85.5580428,36.7087556 84.5098075,36.4096795 C83.4336578,36.1387631 82.3854225,35.8066721 81.3651016,35.4134065 C80.3428556,35.0211118 79.4293797,34.512294 78.6227487,33.887924 C77.8161176,33.2645251 77.1644599,32.4847909 76.6677754,31.5496925 C76.1701283,30.6136231 75.9217861,29.4823774 75.9217861,28.1530423 C75.9217861,26.6615458 76.2365455,25.3661966 76.8689519,24.2679658 C77.5003957,23.170706 78.3272406,22.2550281 79.3485241,21.5228742 C80.3698075,20.7907203 81.5258503,20.2488876 82.8156898,19.896405 C84.106492,19.5439225 85.3963316,19.3671957 86.6871337,19.3671957 C88.1916257,19.3671957 89.6364385,19.5371253 91.0215722,19.8760135 C92.4057433,20.2149017 93.6349412,20.7645026 94.7110909,21.5228742 C95.7853155,22.2822168 96.6391123,23.2513012 97.2705561,24.4310982 C97.902,25.6108952 98.2186845,27.0412171 98.2186845,28.7220637 L92.0900214,28.7220637 C92.0351551,27.8549372 91.8541925,27.1363777 91.5452086,26.5663852 C91.2362246,25.9973637 90.8261711,25.5497206 90.3150481,25.2244267 C89.8048877,24.8991329 89.2196471,24.6689997 88.5622139,24.533056 C87.9028556,24.3980833 87.1838182,24.3291404 86.4051016,24.3291404 C85.8939786,24.3291404 85.3828556,24.3844889 84.8726952,24.4922729 C84.3615722,24.6010278 83.897615,24.791349 83.4817861,25.0612943 C83.0640321,25.3331817 82.7223209,25.6720699 82.4528021,26.0789299 C82.184246,26.484819 82.0504492,27.001405 82.0504492,27.6248039 C82.0504492,28.1938254 82.1572941,28.6550629 82.3729091,29.0075455 C82.5865989,29.3600281 83.0110909,29.6853219 83.6425348,29.983427 C84.2739786,30.2825031 85.1479893,30.5796372 86.2636043,30.8777423 C87.3782567,31.1768184 88.8365455,31.5564897 90.637508,32.0167562 C91.1755829,32.1255112 91.9215722,32.3216585 92.8764385,32.6071402 C93.8293797,32.891651 94.777508,33.3460913 95.7188984,33.9694902 C96.6593262,34.5938602 97.4726952,35.4279718 98.1580428,36.4708542 C98.8433904,37.5147075 99.1860642,38.8508398 99.1860642,40.477309 C99.1860642,41.8056731 98.9300214,43.0398476 98.419861,44.1788615 C97.908738,45.3178754 97.1492727,46.3005541 96.1424278,47.1278686 C95.1336578,47.954212 93.884246,48.5989735 92.3922674,49.05924 C90.9002888,49.5204776 89.1734439,49.7506108 87.2107701,49.7506108 C85.6244599,49.7506108 84.0862781,49.5534925 82.5942995,49.1611978 C81.1023209,48.7689032 79.7855294,48.1513304 78.6429626,47.3104215 C77.5003957,46.4704837 76.5926952,45.3984706 75.9217861,44.0972953 C75.2489519,42.79612 74.926492,41.250246 74.9534439,39.4606444 L81.082107,39.4606444 C81.082107,40.4365259 81.2572941,41.2638403 81.6067059,41.9416167" id="Fill-9" fill="#444445" mask="url(#mask-2)"></path>
                    <path d="M112.773658,28.0717674 L112.773658,31.9354813 L108.580717,31.9354813 L108.580717,42.3487681 C108.580717,43.3246496 108.741465,43.9752373 109.063925,44.3005311 C109.386385,44.6258249 110.032267,44.7889574 110.999647,44.7889574 C111.322107,44.7889574 111.631091,44.775363 111.926599,44.7481743 C112.22307,44.7219566 112.504139,44.6802024 112.773658,44.6258249 L112.773658,49.1003145 C112.289487,49.1818807 111.752374,49.2362582 111.160396,49.2634469 C110.56938,49.2896646 109.99184,49.303259 109.426813,49.303259 C108.540289,49.303259 107.699968,49.2430553 106.906813,49.120706 C106.113658,48.9983567 105.414834,48.7614263 104.810342,48.4089437 C104.20585,48.0574321 103.728417,47.5554115 103.379005,46.9038528 C103.029594,46.2532651 102.855369,45.3987619 102.855369,44.3413142 L102.855369,31.9354813 L99.3872406,31.9354813 L99.3872406,28.0717674 L102.855369,28.0717674 L102.855369,21.7668931 L108.580717,21.7668931 L108.580717,28.0717674 L112.773658,28.0717674 Z" id="Fill-10" fill="#444445" mask="url(#mask-2)"></path>
                    <path d="M127.490053,38.8096683 C127.248449,39.0271782 126.946203,39.1961368 126.583316,39.3184861 C126.220428,39.4408354 125.829626,39.5418222 125.413797,39.6233884 C124.997005,39.7049546 124.56,39.7729264 124.102781,39.8263329 C123.645561,39.8816814 123.189305,39.9486822 122.732086,40.0302484 C122.301818,40.1108436 121.879251,40.2195986 121.46246,40.3555423 C121.045668,40.491486 120.682781,40.6750099 120.373797,40.9041722 C120.064813,41.1352764 119.815508,41.4275554 119.627807,41.7790669 C119.439144,42.1315495 119.345775,42.5791927 119.345775,43.1210254 C119.345775,43.6366404 119.439144,44.0706892 119.627807,44.4231717 C119.815508,44.7756543 120.071551,45.0533679 120.394011,45.2572834 C120.716471,45.4602279 121.091872,45.6019978 121.522139,45.683564 C121.952406,45.7651302 122.39615,45.8059133 122.853369,45.8059133 C123.98246,45.8059133 124.855508,45.6165631 125.474439,45.2359208 C126.092406,44.8572205 126.548663,44.4027802 126.845134,43.8735708 C127.140642,43.3453325 127.322567,42.8093259 127.388984,42.2665222 C127.456364,41.7246895 127.490053,41.2916117 127.490053,40.9653468 L127.490053,38.8096683 Z M114.265348,34.5390943 C114.346203,33.1835415 114.681176,32.0581219 115.273155,31.1628356 C115.864171,30.2685203 116.616898,29.5499608 117.531337,29.0071571 C118.444813,28.4653244 119.472834,28.0788559 120.615401,27.8477516 C121.757968,27.6176183 122.907273,27.5020662 124.063316,27.5020662 C125.111551,27.5020662 126.172299,27.5768352 127.248449,27.7263733 C128.322674,27.8749403 129.304492,28.1672193 130.191016,28.600297 C131.078503,29.0343458 131.804278,29.6383242 132.369305,30.4102902 C132.933369,31.1832272 133.216364,32.206689 133.216364,33.4816466 L133.216364,44.4231717 C133.216364,45.3718645 133.269305,46.2807452 133.377112,47.1478717 C133.483957,48.0159693 133.67262,48.667528 133.942139,49.1006058 L128.134973,49.1006058 C128.027166,48.7753119 127.939572,48.4432209 127.873155,48.1033617 C127.805775,47.7654445 127.75861,47.4187881 127.731658,47.0663055 C126.818182,48.0159693 125.742995,48.6801513 124.506096,49.0598227 C123.27016,49.439494 122.00631,49.6288441 120.716471,49.6288441 C119.722139,49.6288441 118.794225,49.5074658 117.934652,49.2627672 C117.074118,49.0190396 116.32139,48.6393682 115.676471,48.1237532 C115.031551,47.6100803 114.527166,46.9585216 114.164278,46.1719902 C113.80139,45.3854589 113.620428,44.4493894 113.620428,43.365724 C113.620428,42.1723326 113.828342,41.1896539 114.245134,40.4157459 C114.661925,39.6437799 115.199037,39.0271782 115.857433,38.5659407 C116.515829,38.1047031 117.268556,37.7590178 118.115615,37.5288845 C118.962674,37.2987513 119.815508,37.1152273 120.676043,36.9792836 C121.536578,36.8443109 122.382674,36.735556 123.216257,36.6539897 C124.048877,36.5724235 124.789091,36.4500742 125.434011,36.2879128 C126.07893,36.1247804 126.589091,35.8878499 126.966417,35.5761505 C127.341818,35.264451 127.517005,34.8100107 127.490053,34.2138005 C127.490053,33.5904015 127.388984,33.0951781 127.187807,32.7291011 C126.985668,32.3630242 126.717112,32.0785135 126.382139,31.8745979 C126.045241,31.6706824 125.655401,31.5357097 125.211658,31.4677379 C124.768877,31.4007371 124.290481,31.3657801 123.780321,31.3657801 C122.652193,31.3657801 121.764706,31.6104788 121.119786,32.097934 C120.473904,32.5863603 120.09754,33.4000804 119.990695,34.5390943 L114.265348,34.5390943 Z" id="Fill-11" fill="#444445" mask="url(#mask-2)"></path>
                    <path d="M146.601433,31.8543035 C145.687957,31.8543035 144.920791,32.0650162 144.302824,32.4844996 C143.684856,32.9059251 143.180471,33.4477578 142.790631,34.1119398 C142.400791,34.7770929 142.125497,35.5092468 141.964749,36.3084015 C141.803037,37.1085272 141.722182,37.9018557 141.722182,38.6883871 C141.722182,39.4467587 141.803037,40.2206667 141.964749,41.006227 C142.125497,41.7927584 142.388278,42.5045207 142.751166,43.141514 C143.114053,43.7794784 143.604,44.3009195 144.22293,44.7077796 C144.840898,45.1136686 145.593626,45.3175841 146.48015,45.3175841 C147.851807,45.3175841 148.905818,44.9311156 149.646032,44.1581786 C150.384321,43.3862127 150.848278,42.3481855 151.036941,41.0470101 L156.56015,41.0470101 C156.183786,43.839682 155.108599,45.9681718 153.334588,47.4324796 C151.560578,48.8967873 149.28892,49.6289412 146.520578,49.6289412 C144.962182,49.6289412 143.530845,49.364822 142.226567,48.8356127 C140.922289,48.3073743 139.813412,47.5684233 138.899936,46.6197305 C137.985497,45.6700667 137.27416,44.538821 136.763037,43.2230802 C136.251914,41.9083105 135.996834,40.4634233 135.996834,38.8913316 C135.996834,37.2638914 136.231701,35.7529744 136.702396,34.3556674 C137.172128,32.9593315 137.865176,31.7523457 138.779615,30.7356811 C139.693091,29.7190165 140.808706,28.925688 142.125497,28.3566665 C143.442289,27.786674 144.948706,27.5021633 146.641861,27.5021633 C147.877797,27.5021633 149.067529,27.6652957 150.210096,27.9905896 C151.352663,28.3149124 152.372984,28.8101358 153.273947,29.4752889 C154.174909,30.1394709 154.907422,30.9667854 155.471487,31.9562613 C156.036513,32.9457371 156.358973,34.118737 156.439829,35.4742898 L150.834802,35.4742898 C150.458439,33.0612893 149.047316,31.8543035 146.601433,31.8543035" id="Fill-12" fill="#444445" mask="url(#mask-2)"></path>
                    <polygon id="Fill-13" fill="#444445" mask="url(#mask-2)" points="165.026984 20.0587606 165.026984 35.6369367 172.24431 28.0716703 179.017893 28.0716703 171.155647 35.7990981 179.90538 49.1002174 172.970086 49.1002174 167.244738 39.7045662 165.026984 41.8602447 165.026984 49.1002174 159.301636 49.1002174 159.301636 20.0587606"></polygon>
                    <polygon id="Fill-14" fill="#D6DE27" mask="url(#mask-2)" points="138.583348 9.15151273 135.509872 7.36191113 122.184096 15.1126436 125.257572 16.9012742"></polygon>
                    <polygon id="Fill-15" fill="#06A049" mask="url(#mask-2)" points="125.257572 16.9006916 122.184096 15.11109 122.184096 18.6922352 125.257572 20.4798948"></polygon>
                    <polygon id="Fill-16" fill="#8BC440" mask="url(#mask-2)" points="125.257572 16.9006916 138.583348 9.14995909 138.583348 12.7320754 125.257572 20.4798948"></polygon>
                    <polygon id="Fill-17" fill="#D6DE27" mask="url(#mask-2)" points="143.707476 12.1380985 140.634 10.3484969 127.308225 18.0992294 130.381701 19.88786"></polygon>
                    <polygon id="Fill-18" fill="#06A049" mask="url(#mask-2)" points="130.381701 19.8873745 127.308225 18.0977729 127.308225 21.6789181 130.381701 23.4665777"></polygon>
                    <polygon id="Fill-19" fill="#8BC440" mask="url(#mask-2)" points="130.381701 19.8873745 143.707476 12.136642 143.707476 15.7187583 130.381701 23.4665777"></polygon>
                    <polygon id="Fill-20" fill="#D6DE27" mask="url(#mask-2)" points="148.836225 15.1229365 145.762749 13.3333349 132.436973 21.0840674 135.510449 22.872698"></polygon>
                    <polygon id="Fill-21" fill="#06A049" mask="url(#mask-2)" points="135.510449 22.8722125 132.436973 21.0826109 132.436973 24.6637561 135.510449 26.4514157"></polygon>
                    <polygon id="Fill-22" fill="#8BC440" mask="url(#mask-2)" points="135.510449 22.8722125 148.836225 15.12148 148.836225 18.7035962 135.510449 26.4514157"></polygon>
                    <polygon id="Fill-23" fill="#F59220" mask="url(#mask-2)" points="148.845273 7.95666478 135.514684 0.203990232 132.442171 1.99456286 145.771797 9.74432433"></polygon>
                    <polygon id="Fill-24" fill="#BD202E" mask="url(#mask-2)" points="145.772374 9.74432433 132.441786 1.99164978 132.441786 5.57376606 145.772374 13.3235275"></polygon>
                    <polygon id="Fill-25" fill="#F05A29" mask="url(#mask-2)" points="145.772374 9.74432433 148.84585 7.95569375 148.84585 11.536839 145.772374 13.3235275"></polygon>
                    <polygon id="Fill-26" fill="#F59220" mask="url(#mask-2)" points="143.721144 10.9359679 130.390556 3.18329334 127.318043 4.97386597 140.647668 12.7236274"></polygon>
                    <polygon id="Fill-27" fill="#BD202E" mask="url(#mask-2)" points="140.648246 12.7237245 127.317658 4.97105 127.317658 8.55316628 140.648246 16.3029277"></polygon>
                    <polygon id="Fill-28" fill="#F05A29" mask="url(#mask-2)" points="140.648246 12.7237245 143.721722 10.935094 143.721722 14.5162392 140.648246 16.3029277"></polygon>
                    <polygon id="Fill-29" fill="#F59220" mask="url(#mask-2)" points="138.597016 13.9160478 125.266428 6.16337328 122.193914 7.95394591 135.52354 15.7037074"></polygon>
                    <polygon id="Fill-30" fill="#BD202E" mask="url(#mask-2)" points="135.524021 15.7037074 122.193433 7.95103283 122.193433 11.5331491 135.524021 19.2829106"></polygon>
                    <polygon id="Fill-31" fill="#F05A29" mask="url(#mask-2)" points="135.524021 15.7037074 138.597497 13.9150768 138.597497 17.4962221 135.524021 19.2829106"></polygon>
                </g>
            </g>
        </g>
    </g>
</svg>